<svg width="24" height="24" viewBox="0 0 24 24" fill="none" xmlns="http://www.w3.org/2000/svg">
<path d="M6.5 7.5C7.49456 7.5 8.44839 7.10491 9.15165 6.40165C9.85491 5.69839 10.25 4.74456 10.25 3.75C10.25 2.75544 9.85491 1.80161 9.15165 1.09835C8.44839 0.395088 7.49456 0 6.5 0C5.50544 0 4.55161 0.395088 3.84835 1.09835C3.14509 1.80161 2.75 2.75544 2.75 3.75C2.75 4.74456 3.14509 5.69839 3.84835 6.40165C4.55161 7.10491 5.50544 7.5 6.5 7.5ZM0 10.982C0 9.887 0.887 9 1.982 9H7.582C7.14374 10.1057 7.13625 11.3356 7.56101 12.4466C7.98577 13.5575 8.81186 14.4687 9.876 15H7.483C6.89203 15 6.3144 15.1756 5.82337 15.5045C5.33234 15.8333 4.95005 16.3006 4.725 16.847C2.72 16.476 1.518 15.475 0.831 14.357C1.19209e-07 13.01 0 11.618 0 11.378V10.982ZM14.123 15H16.518C17.763 15 18.83 15.763 19.276 16.847C21.281 16.476 22.483 15.475 23.17 14.357C24 13.009 24 11.617 24 11.377V10.982C24 10.4563 23.7912 9.95221 23.4195 9.58051C23.0478 9.20882 22.5437 9 22.018 9H16.418C16.8563 10.1057 16.8637 11.3356 16.439 12.4466C16.0142 13.5575 15.1881 14.4687 14.124 15M21.25 3.75C21.25 4.74456 20.8549 5.69839 20.1517 6.40165C19.4484 7.10491 18.4946 7.5 17.5 7.5C16.5054 7.5 15.5516 7.10491 14.8483 6.40165C14.1451 5.69839 13.75 4.74456 13.75 3.75C13.75 2.75544 14.1451 1.80161 14.8483 1.09835C15.5516 0.395088 16.5054 0 17.5 0C18.4946 0 19.4484 0.395088 20.1517 1.09835C20.8549 1.80161 21.25 2.75544 21.25 3.75ZM5.5 17.982C5.5 16.887 6.387 16 7.482 16H16.518C17.613 16 18.5 16.887 18.5 17.982V18.377C18.5 18.617 18.5 20.009 17.67 21.357C16.8 22.773 15.106 24 12 24C8.894 24 7.2 22.772 6.33 21.358C5.5 20.009 5.5 18.618 5.5 18.377V17.982ZM12 14.5C12.9946 14.5 13.9484 14.1049 14.6517 13.4017C15.3549 12.6984 15.75 11.7446 15.75 10.75C15.75 9.75544 15.3549 8.80161 14.6517 8.09835C13.9484 7.39509 12.9946 7 12 7C11.0054 7 10.0516 7.39509 9.34835 8.09835C8.64509 8.80161 8.25 9.75544 8.25 10.75C8.25 11.7446 8.64509 12.6984 9.34835 13.4017C10.0516 14.1049 11.0054 14.5 12 14.5Z" fill="currentColor"/>
</svg>
