<?xml version="1.0" standalone="no"?>
<!DOCTYPE svg PUBLIC "-//W3C//DTD SVG 20010904//EN"
 "http://www.w3.org/TR/2001/REC-SVG-20010904/DTD/svg10.dtd">
<svg version="1.0" xmlns="http://www.w3.org/2000/svg"
 width="50.000000pt" height="50.000000pt" viewBox="0 0 50.000000 50.000000"
 preserveAspectRatio="xMidYMid meet">

<g transform="translate(0.000000,50.000000) scale(0.100000,-0.100000)"
fill="currentColor" stroke="none">
<path d="M125 470 c-39 -13 -68 -38 -94 -81 -28 -45 -26 -93 4 -146 l26 -43
-26 -26 c-21 -21 -24 -29 -13 -35 20 -13 66 -11 101 5 18 8 56 17 86 20 64 6
112 36 140 87 56 99 -17 215 -141 224 -29 3 -66 0 -83 -5z m155 -120 c0 -6
-37 -10 -90 -10 -53 0 -90 4 -90 10 0 6 37 10 90 10 53 0 90 -4 90 -10z m-70
-60 c0 -5 -25 -10 -55 -10 -30 0 -55 5 -55 10 0 6 25 10 55 10 30 0 55 -4 55
-10z m70 0 c0 -5 -11 -10 -25 -10 -14 0 -25 5 -25 10 0 6 11 10 25 10 14 0 25
-4 25 -10z"/>
<path d="M390 321 c0 -94 -94 -180 -198 -181 -38 0 -41 -2 -31 -18 22 -34 75
-63 130 -68 30 -3 68 -12 86 -20 35 -16 81 -18 101 -5 11 6 8 14 -13 35 l-26
26 26 43 c30 53 32 101 4 146 -20 34 -57 70 -71 71 -5 0 -8 -13 -8 -29z"/>
</g>
</svg>
