<svg width="24" height="24" viewBox="0 0 15 15" fill="none" xmlns="http://www.w3.org/2000/svg">
<path d="M9 1.49998C9.00002 1.41152 8.97657 1.32463 8.93203 1.24819C8.8875 1.17175 8.82349 1.10849 8.74652 1.06488C8.66956 1.02126 8.58239 0.998842 8.49394 0.999915C8.40548 1.00099 8.31889 1.02551 8.243 1.07098L3.362 3.99798H1.5C0.671 3.99798 0 4.66798 0 5.49798V9.49998C0 10.329 0.67 11 1.5 11H3.362L8.242 13.929C8.31791 13.9747 8.4046 13.9994 8.49321 14.0006C8.58182 14.0018 8.66915 13.9795 8.74627 13.9358C8.8234 13.8922 8.88753 13.8288 8.93211 13.7522C8.9767 13.6757 9.00013 13.5886 9 13.5V1.49998ZM13.208 7.49598L14.62 8.90998L13.913 9.61698L12.5 8.20298L11.086 9.61598L10.379 8.90898L11.793 7.49598L10.379 6.08298L11.086 5.37598L12.5 6.78898L13.915 5.37598L14.621 6.08298L13.208 7.49598Z" fill="currentColor"/>
</svg>
