<svg width="24" height="24" viewBox="0 0 15 15" fill="none" xmlns="http://www.w3.org/2000/svg">
<path d="M8.746 1.06501C8.82305 1.10855 8.88716 1.17176 8.93178 1.24818C8.97641 1.32461 8.99995 1.41151 9 1.50001V13.5C9.00002 13.5885 8.97657 13.6754 8.93203 13.7518C8.8875 13.8282 8.82349 13.8915 8.74652 13.9351C8.66956 13.9787 8.58239 14.0011 8.49394 14.0001C8.40548 13.999 8.31889 13.9745 8.243 13.929L3.362 11H1.5C1.10218 11 0.720644 10.842 0.43934 10.5607C0.158035 10.2794 0 9.89783 0 9.50001L0 5.49701C0.000265101 5.09935 0.158417 4.71808 0.439693 4.43699C0.720969 4.1559 1.10235 3.99801 1.5 3.99801H3.362L8.242 1.07101C8.31795 1.02546 8.40464 1.00091 8.49319 0.999852C8.58174 0.998798 8.66899 1.02128 8.746 1.06501ZM13.854 4.14401L13.5 3.79101L12.793 4.49801L13.144 4.85001L13.147 4.85201L13.167 4.87401C13.3175 5.05802 13.447 5.25826 13.553 5.47101C13.773 5.91001 14 6.58301 14 7.49601C14 8.40901 13.772 9.08201 13.553 9.52101C13.4687 9.69154 13.3693 9.85419 13.256 10.007C13.2213 10.0529 13.1846 10.0973 13.146 10.14L13.144 10.143L12.793 10.493L13.5 11.201L13.854 10.848L13.855 10.846L13.857 10.844L13.862 10.839L13.876 10.825L13.919 10.777C13.954 10.737 14.001 10.68 14.056 10.607C14.166 10.461 14.307 10.247 14.447 9.96801C14.727 9.40801 15 8.58201 15 7.49601C15 6.41001 14.728 5.58501 14.447 5.02401C14.3363 4.7998 14.2058 4.58594 14.057 4.38501C14.0002 4.30976 13.9398 4.23735 13.876 4.16801L13.862 4.15301L13.857 4.14801L13.855 4.14601C13.855 4.14501 13.853 4.14401 13.5 4.49801L13.854 4.14401Z" fill="currentColor"/>
</svg>
