<svg width="33" height="27" viewBox="0 0 33 27" fill="none" xmlns="http://www.w3.org/2000/svg">
<line x1="17" y1="25" x2="2" y2="25" stroke="currentColor" stroke-width="2"/>
<line x1="1" y1="26" x2="0.999999" y2="2" stroke="currentColor" stroke-width="2"/>
<line x1="2" y1="3" x2="17" y2="3" stroke="currentColor" stroke-width="2"/>
<path d="M9.472 7.92H11.216V18H9.12V9.872L7.248 10.768L6.752 9.184L9.472 7.92ZM13.2989 16.864C13.2989 16.6827 13.3309 16.512 13.3949 16.352C13.4695 16.192 13.5655 16.0533 13.6829 15.936C13.8002 15.8187 13.9335 15.728 14.0829 15.664C14.2429 15.6 14.4082 15.568 14.5789 15.568C14.9202 15.568 15.2135 15.6907 15.4589 15.936C15.7149 16.1813 15.8429 16.4907 15.8429 16.864C15.8429 17.2693 15.7149 17.5893 15.4589 17.824C15.2135 18.0587 14.9202 18.176 14.5789 18.176C14.2375 18.176 13.9389 18.0587 13.6829 17.824C13.4269 17.5893 13.2989 17.2693 13.2989 16.864ZM20.2395 9.376C19.8982 9.376 19.5728 9.44 19.2635 9.568C18.9648 9.68533 18.6448 9.88267 18.3035 10.16L17.4235 8.816C17.8395 8.47467 18.2875 8.21333 18.7675 8.032C19.2582 7.84 19.8342 7.744 20.4955 7.744C21.0075 7.744 21.4608 7.81867 21.8555 7.968C22.2608 8.11733 22.6022 8.32533 22.8795 8.592C23.1568 8.85867 23.3648 9.17333 23.5035 9.536C23.6528 9.888 23.7275 10.2773 23.7275 10.704C23.7275 11.408 23.4768 12.1493 22.9755 12.928C22.4742 13.696 21.7542 14.5227 20.8155 15.408L19.8075 16.352H23.8395V18H17.6635L17.2795 16.592L18.7195 15.152C19.2528 14.6187 19.7008 14.1493 20.0635 13.744C20.4262 13.328 20.7195 12.9547 20.9435 12.624C21.1675 12.2933 21.3275 11.9893 21.4235 11.712C21.5195 11.4347 21.5675 11.1573 21.5675 10.88C21.5675 10.3893 21.4395 10.016 21.1835 9.76C20.9382 9.504 20.6235 9.376 20.2395 9.376ZM31.463 7.888V9.536L27.943 9.568L27.719 11.584C27.8683 11.5627 27.9857 11.552 28.071 11.552C28.167 11.552 28.2897 11.552 28.439 11.552C28.887 11.552 29.319 11.616 29.735 11.744C30.151 11.8613 30.519 12.048 30.839 12.304C31.159 12.5493 31.415 12.8693 31.607 13.264C31.799 13.6587 31.895 14.128 31.895 14.672C31.895 15.152 31.8097 15.6053 31.639 16.032C31.479 16.448 31.2283 16.816 30.887 17.136C30.5563 17.456 30.1297 17.712 29.607 17.904C29.0843 18.0853 28.471 18.176 27.767 18.176C27.255 18.176 26.7857 18.1227 26.359 18.016C25.9323 17.9093 25.5643 17.7813 25.255 17.632L25.703 16.08C25.9803 16.208 26.2683 16.3147 26.567 16.4C26.8657 16.4853 27.2017 16.528 27.575 16.528C28.2683 16.528 28.7963 16.368 29.159 16.048C29.5217 15.728 29.703 15.312 29.703 14.8C29.703 14.2133 29.495 13.776 29.079 13.488C28.6737 13.2 28.151 13.056 27.511 13.056C27.2337 13.056 26.951 13.0773 26.663 13.12C26.375 13.152 26.103 13.1947 25.847 13.248L26.343 7.92L31.463 7.888Z" fill="currentColor"/>
<line x1="16" y1="19" x2="16" y2="24" stroke="currentColor" stroke-width="2"/>
<line x1="16" y1="4" x2="16" y2="7" stroke="currentColor" stroke-width="2"/>
</svg>
