<svg width="26" height="27" viewBox="0 0 26 27" fill="none" xmlns="http://www.w3.org/2000/svg">
<line x1="17" y1="25" x2="2" y2="25" stroke="currentColor" stroke-width="2"/>
<line x1="1" y1="26" x2="0.999999" y2="2" stroke="currentColor" stroke-width="2"/>
<line x1="2" y1="3" x2="17" y2="3" stroke="currentColor" stroke-width="2"/>
<path d="M9.472 7.92H11.216V18H9.12V9.872L7.248 10.768L6.752 9.184L9.472 7.92ZM13.2989 16.864C13.2989 16.6827 13.3309 16.512 13.3949 16.352C13.4695 16.192 13.5655 16.0533 13.6829 15.936C13.8002 15.8187 13.9335 15.728 14.0829 15.664C14.2429 15.6 14.4082 15.568 14.5789 15.568C14.9202 15.568 15.2135 15.6907 15.4589 15.936C15.7149 16.1813 15.8429 16.4907 15.8429 16.864C15.8429 17.2693 15.7149 17.5893 15.4589 17.824C15.2135 18.0587 14.9202 18.176 14.5789 18.176C14.2375 18.176 13.9389 18.0587 13.6829 17.824C13.4269 17.5893 13.2989 17.2693 13.2989 16.864ZM21.0173 7.744C21.6146 7.744 22.1639 7.84533 22.6653 8.048C23.1773 8.24 23.6146 8.54933 23.9773 8.976C24.3506 9.392 24.6386 9.93067 24.8413 10.592C25.0546 11.2427 25.1613 12.0267 25.1613 12.944C25.1613 13.8507 25.0493 14.6347 24.8253 15.296C24.6013 15.9467 24.2973 16.4853 23.9133 16.912C23.5293 17.3387 23.0866 17.6587 22.5853 17.872C22.0839 18.0747 21.5559 18.176 21.0013 18.176C20.4039 18.176 19.8493 18.08 19.3373 17.888C18.8359 17.6853 18.3986 17.3707 18.0253 16.944C17.6519 16.5173 17.3586 15.9733 17.1453 15.312C16.9426 14.6507 16.8413 13.8613 16.8413 12.944C16.8413 12.0693 16.9533 11.3067 17.1773 10.656C17.4119 9.99467 17.7213 9.45067 18.1053 9.024C18.4893 8.59733 18.9319 8.27733 19.4333 8.064C19.9453 7.85067 20.4733 7.744 21.0173 7.744ZM19.0333 12.944C19.0333 13.6587 19.0866 14.2507 19.1933 14.72C19.2999 15.1893 19.4439 15.5627 19.6253 15.84C19.8173 16.1173 20.0306 16.3147 20.2653 16.432C20.5106 16.5387 20.7613 16.592 21.0173 16.592C21.2733 16.592 21.5186 16.5333 21.7533 16.416C21.9986 16.2987 22.2066 16.1013 22.3773 15.824C22.5586 15.5467 22.7026 15.1733 22.8093 14.704C22.9159 14.2347 22.9693 13.648 22.9693 12.944C22.9693 12.2293 22.9159 11.6427 22.8093 11.184C22.7026 10.7147 22.5586 10.3467 22.3773 10.08C22.2066 9.80267 21.9986 9.61067 21.7533 9.504C21.5186 9.38667 21.2733 9.328 21.0173 9.328C20.7613 9.328 20.5106 9.38667 20.2653 9.504C20.0306 9.61067 19.8173 9.80267 19.6253 10.08C19.4439 10.3573 19.2999 10.7307 19.1933 11.2C19.0866 11.6587 19.0333 12.24 19.0333 12.944Z" fill="currentColor"/>
<line x1="16" y1="19" x2="16" y2="24" stroke="currentColor" stroke-width="2"/>
<line x1="16" y1="4" x2="16" y2="7" stroke="currentColor" stroke-width="2"/>
</svg>
