<svg width="28" height="27" viewBox="0 0 28 27" fill="none" xmlns="http://www.w3.org/2000/svg">
<line x1="17" y1="25" x2="2" y2="25" stroke="currentColor" stroke-width="2"/>
<line x1="1" y1="26" x2="0.999999" y2="2" stroke="currentColor" stroke-width="2"/>
<line x1="2" y1="3" x2="17" y2="3" stroke="currentColor" stroke-width="2"/>
<path d="M9.552 9.376C9.21067 9.376 8.88533 9.44 8.576 9.568C8.27733 9.68533 7.95733 9.88267 7.616 10.16L6.736 8.816C7.152 8.47467 7.6 8.21333 8.08 8.032C8.57067 7.84 9.14667 7.744 9.808 7.744C10.32 7.744 10.7733 7.81867 11.168 7.968C11.5733 8.11733 11.9147 8.32533 12.192 8.592C12.4693 8.85867 12.6773 9.17333 12.816 9.536C12.9653 9.888 13.04 10.2773 13.04 10.704C13.04 11.408 12.7893 12.1493 12.288 12.928C11.7867 13.696 11.0667 14.5227 10.128 15.408L9.12 16.352H13.152V18H6.976L6.592 16.592L8.032 15.152C8.56533 14.6187 9.01333 14.1493 9.376 13.744C9.73867 13.328 10.032 12.9547 10.256 12.624C10.48 12.2933 10.64 11.9893 10.736 11.712C10.832 11.4347 10.88 11.1573 10.88 10.88C10.88 10.3893 10.752 10.016 10.496 9.76C10.2507 9.504 9.936 9.376 9.552 9.376ZM14.5958 16.864C14.5958 16.6827 14.6278 16.512 14.6918 16.352C14.7664 16.192 14.8624 16.0533 14.9798 15.936C15.0971 15.8187 15.2304 15.728 15.3798 15.664C15.5398 15.6 15.7051 15.568 15.8758 15.568C16.2171 15.568 16.5104 15.6907 16.7558 15.936C17.0118 16.1813 17.1398 16.4907 17.1398 16.864C17.1398 17.2693 17.0118 17.5893 16.7558 17.824C16.5104 18.0587 16.2171 18.176 15.8758 18.176C15.5344 18.176 15.2358 18.0587 14.9798 17.824C14.7238 17.5893 14.5958 17.2693 14.5958 16.864ZM22.3141 7.744C22.9115 7.744 23.4608 7.84533 23.9621 8.048C24.4741 8.24 24.9115 8.54933 25.2741 8.976C25.6475 9.392 25.9355 9.93067 26.1381 10.592C26.3515 11.2427 26.4581 12.0267 26.4581 12.944C26.4581 13.8507 26.3461 14.6347 26.1221 15.296C25.8981 15.9467 25.5941 16.4853 25.2101 16.912C24.8261 17.3387 24.3835 17.6587 23.8821 17.872C23.3808 18.0747 22.8528 18.176 22.2981 18.176C21.7008 18.176 21.1461 18.08 20.6341 17.888C20.1328 17.6853 19.6955 17.3707 19.3221 16.944C18.9488 16.5173 18.6555 15.9733 18.4421 15.312C18.2395 14.6507 18.1381 13.8613 18.1381 12.944C18.1381 12.0693 18.2501 11.3067 18.4741 10.656C18.7088 9.99467 19.0181 9.45067 19.4021 9.024C19.7861 8.59733 20.2288 8.27733 20.7301 8.064C21.2421 7.85067 21.7701 7.744 22.3141 7.744ZM20.3301 12.944C20.3301 13.6587 20.3835 14.2507 20.4901 14.72C20.5968 15.1893 20.7408 15.5627 20.9221 15.84C21.1141 16.1173 21.3275 16.3147 21.5621 16.432C21.8075 16.5387 22.0581 16.592 22.3141 16.592C22.5701 16.592 22.8155 16.5333 23.0501 16.416C23.2955 16.2987 23.5035 16.1013 23.6741 15.824C23.8555 15.5467 23.9995 15.1733 24.1061 14.704C24.2128 14.2347 24.2661 13.648 24.2661 12.944C24.2661 12.2293 24.2128 11.6427 24.1061 11.184C23.9995 10.7147 23.8555 10.3467 23.6741 10.08C23.5035 9.80267 23.2955 9.61067 23.0501 9.504C22.8155 9.38667 22.5701 9.328 22.3141 9.328C22.0581 9.328 21.8075 9.38667 21.5621 9.504C21.3275 9.61067 21.1141 9.80267 20.9221 10.08C20.7408 10.3573 20.5968 10.7307 20.4901 11.2C20.3835 11.6587 20.3301 12.24 20.3301 12.944Z" fill="currentColor"/>
<line x1="16" y1="19" x2="16" y2="24" stroke="currentColor" stroke-width="2"/>
<line x1="16" y1="4" x2="16" y2="7" stroke="currentColor" stroke-width="2"/>
</svg>
