<svg width="33" height="27" viewBox="0 0 33 27" fill="none" xmlns="http://www.w3.org/2000/svg">
<line x1="17" y1="25" x2="2" y2="25" stroke="currentColor" stroke-width="2"/>
<line x1="1" y1="26" x2="0.999999" y2="2" stroke="currentColor" stroke-width="2"/>
<line x1="2" y1="3" x2="17" y2="3" stroke="currentColor" stroke-width="2"/>
<path d="M9.472 7.92H11.216V18H9.12V9.872L7.248 10.768L6.752 9.184L9.472 7.92ZM13.2989 16.864C13.2989 16.6827 13.3309 16.512 13.3949 16.352C13.4695 16.192 13.5655 16.0533 13.6829 15.936C13.8002 15.8187 13.9335 15.728 14.0829 15.664C14.2429 15.6 14.4082 15.568 14.5789 15.568C14.9202 15.568 15.2135 15.6907 15.4589 15.936C15.7149 16.1813 15.8429 16.4907 15.8429 16.864C15.8429 17.2693 15.7149 17.5893 15.4589 17.824C15.2135 18.0587 14.9202 18.176 14.5789 18.176C14.2375 18.176 13.9389 18.0587 13.6829 17.824C13.4269 17.5893 13.2989 17.2693 13.2989 16.864ZM23.2648 7.92V9.28L19.0088 18.368L17.1688 17.584L21.2168 9.456H16.7528V7.92H23.2648ZM30.9786 7.888V9.536L27.4586 9.568L27.2346 11.584C27.384 11.5627 27.5013 11.552 27.5866 11.552C27.6826 11.552 27.8053 11.552 27.9546 11.552C28.4026 11.552 28.8346 11.616 29.2506 11.744C29.6666 11.8613 30.0346 12.048 30.3546 12.304C30.6746 12.5493 30.9306 12.8693 31.1226 13.264C31.3146 13.6587 31.4106 14.128 31.4106 14.672C31.4106 15.152 31.3253 15.6053 31.1546 16.032C30.9946 16.448 30.744 16.816 30.4026 17.136C30.072 17.456 29.6453 17.712 29.1226 17.904C28.6 18.0853 27.9866 18.176 27.2826 18.176C26.7706 18.176 26.3013 18.1227 25.8746 18.016C25.448 17.9093 25.08 17.7813 24.7706 17.632L25.2186 16.08C25.496 16.208 25.784 16.3147 26.0826 16.4C26.3813 16.4853 26.7173 16.528 27.0906 16.528C27.784 16.528 28.312 16.368 28.6746 16.048C29.0373 15.728 29.2186 15.312 29.2186 14.8C29.2186 14.2133 29.0106 13.776 28.5946 13.488C28.1893 13.2 27.6666 13.056 27.0266 13.056C26.7493 13.056 26.4666 13.0773 26.1786 13.12C25.8906 13.152 25.6186 13.1947 25.3626 13.248L25.8586 7.92L30.9786 7.888Z" fill="currentColor"/>
<line x1="16" y1="19" x2="16" y2="24" stroke="currentColor" stroke-width="2"/>
<line x1="16" y1="4" x2="16" y2="7" stroke="currentColor" stroke-width="2"/>
</svg>
