<svg width="26" height="27" viewBox="0 0 25 27" fill="none" xmlns="http://www.w3.org/2000/svg">
<line x1="17" y1="25" x2="2" y2="25" stroke="currentColor" stroke-width="2"/>
<line x1="1" y1="26" x2="0.999999" y2="2" stroke="currentColor" stroke-width="2"/>
<line x1="2" y1="3" x2="17" y2="3" stroke="currentColor" stroke-width="2"/>
<path d="M9.472 7.92H11.216V18H9.12V9.872L7.248 10.768L6.752 9.184L9.472 7.92ZM13.2989 16.864C13.2989 16.6827 13.3309 16.512 13.3949 16.352C13.4695 16.192 13.5655 16.0533 13.6829 15.936C13.8002 15.8187 13.9335 15.728 14.0829 15.664C14.2429 15.6 14.4082 15.568 14.5789 15.568C14.9202 15.568 15.2135 15.6907 15.4589 15.936C15.7149 16.1813 15.8429 16.4907 15.8429 16.864C15.8429 17.2693 15.7149 17.5893 15.4589 17.824C15.2135 18.0587 14.9202 18.176 14.5789 18.176C14.2375 18.176 13.9389 18.0587 13.6829 17.824C13.4269 17.5893 13.2989 17.2693 13.2989 16.864ZM23.3693 7.888V9.536L19.8493 9.568L19.6253 11.584C19.7746 11.5627 19.8919 11.552 19.9773 11.552C20.0733 11.552 20.1959 11.552 20.3453 11.552C20.7933 11.552 21.2253 11.616 21.6413 11.744C22.0573 11.8613 22.4253 12.048 22.7453 12.304C23.0653 12.5493 23.3213 12.8693 23.5133 13.264C23.7053 13.6587 23.8013 14.128 23.8013 14.672C23.8013 15.152 23.7159 15.6053 23.5453 16.032C23.3853 16.448 23.1346 16.816 22.7933 17.136C22.4626 17.456 22.0359 17.712 21.5133 17.904C20.9906 18.0853 20.3773 18.176 19.6733 18.176C19.1613 18.176 18.6919 18.1227 18.2653 18.016C17.8386 17.9093 17.4706 17.7813 17.1613 17.632L17.6093 16.08C17.8866 16.208 18.1746 16.3147 18.4733 16.4C18.7719 16.4853 19.1079 16.528 19.4813 16.528C20.1746 16.528 20.7026 16.368 21.0653 16.048C21.4279 15.728 21.6093 15.312 21.6093 14.8C21.6093 14.2133 21.4013 13.776 20.9852 13.488C20.5799 13.2 20.0573 13.056 19.4173 13.056C19.1399 13.056 18.8573 13.0773 18.5693 13.12C18.2813 13.152 18.0093 13.1947 17.7533 13.248L18.2493 7.92L23.3693 7.888Z" fill="currentColor"/>
<line x1="16" y1="19" x2="16" y2="24" stroke="currentColor" stroke-width="2"/>
<line x1="16" y1="4" x2="16" y2="7" stroke="currentColor" stroke-width="2"/>
</svg>
