<svg width="24" height="24" viewBox="0 0 24 24" fill="#000" xmlns="http://www.w3.org/2000/svg">
<path d="M12.0127 3C10.8324 3 9.66376 3.23278 8.57336 3.68505C7.48297 4.13733 6.49221 4.80023 5.65766 5.63592C3.97221 7.32368 3.02533 9.61276 3.02533 11.9996C3.01748 14.0777 3.73604 16.0931 5.05647 17.6963L3.259 19.4963C3.1343 19.6228 3.04982 19.7835 3.01623 19.9581C2.98264 20.1327 3.00144 20.3133 3.07027 20.4772C3.14492 20.6392 3.26593 20.7752 3.41794 20.8682C3.56995 20.9611 3.74612 21.0067 3.92407 20.9992H12.0127C14.3963 20.9992 16.6822 20.051 18.3677 18.3633C20.0531 16.6755 21 14.3864 21 11.9996C21 9.61276 20.0531 7.32368 18.3677 5.63592C16.6822 3.94817 14.3963 3 12.0127 3ZM12.0127 19.1993H6.09001L6.92583 18.3623C7.09322 18.1937 7.18718 17.9656 7.18718 17.7278C7.18718 17.4901 7.09322 17.262 6.92583 17.0934C5.74902 15.9163 5.01618 14.367 4.85218 12.7095C4.68818 11.052 5.10315 9.38882 6.02641 8.00335C6.94966 6.61787 8.32408 5.59581 9.91549 5.11128C11.5069 4.62676 13.2168 4.70975 14.754 5.34612C16.2912 5.98249 17.5604 7.13286 18.3455 8.60125C19.1307 10.0696 19.3831 11.7652 19.0597 13.399C18.7364 15.0329 17.8574 16.5039 16.5724 17.5616C15.2874 18.6192 13.676 19.198 12.0127 19.1993Z" fill="currentColor"/>
</svg>
